<svg xmlns="http://www.w3.org/2000/svg" viewBox="0 0 301.05 159.48"><defs><style>.cls-1{fill:#fff;}</style></defs><g id="Capa_2" data-name="Capa 2"><g id="Capa_1-2" data-name="Capa 1"><path class="cls-1" d="M216.58,110.32a25,25,0,0,0-7.5,1.65,1.8,1.8,0,0,0-1.17,1.35c-2.48,9.33-7,18-9.44,27.31-.68,2.63-1.61,5.23-1.46,8,.18,3.58,3.11,5.53,6.62,4.54a12.8,12.8,0,0,0,3.11-1.46c.9-.54,1.82-1,2.74-1.53.47-.25,1-.46,1.47-.09.66.55.17,1.18-.08,1.7a7.2,7.2,0,0,1-1.19,1.83,20.13,20.13,0,0,1-7.38,5.22c-4.4,1.73-8.6-.16-10.13-4.61a20.9,20.9,0,0,1-.49-9.94c1-6.79,3.35-13.18,5.63-19.59.88-2.47,1.73-5,2.57-7.43.19-.56.58-1.14,0-2-1.58.62-3.2,1.26-4.82,1.88-.47.18-1,.51-1.41,0a1.31,1.31,0,0,1,0-1.47,5.57,5.57,0,0,1,2-2.39c.78-.53,1.66-.88,2.46-1.37,1.45-.9,3.67-.72,4.25-2.83.87-3.15,1.53-6.35.18-9.55-.74-1.75-2-2.41-3.8-1.8-2.14.74-4,1.79-4.28,4.46a6.91,6.91,0,0,1-.66,2.41,2.91,2.91,0,0,1-3.14,1.63c-1.34-.17-1.76-1.32-2-2.49a4.48,4.48,0,0,1,.33-2.46A12.09,12.09,0,0,1,205,94c3.33,1.46,4.28,4.42,4.52,7.69.13,1.66,0,3.33,0,4.88.81.69,1.51.36,2.19.19,2.64-.65,5.29-1.28,7.92-2a9.19,9.19,0,0,1,2.8-.3c2.31.12,3.21,1.23,2.65,3.52a32.58,32.58,0,0,1-1.55,4.45,27.27,27.27,0,0,0-2.13,11,11.42,11.42,0,0,0,.16,2.19c.33,1.54,1.24,1.89,2.48,1a9.86,9.86,0,0,0,2.26-2.59,46.05,46.05,0,0,0,5.53-12.28c.51-1.75.94-3.66,3-4.49a2,2,0,0,1,.53,2.33c-1.45,6.12-2.8,12.27-5.79,17.88a25.69,25.69,0,0,1-2.24,3.41,9.94,9.94,0,0,1-3.61,3c-4.16,2-7.81.43-9.12-4-1-3.29-.7-6.64-.3-10A46.48,46.48,0,0,1,216.58,110.32Z"/><path class="cls-1" d="M122,125.45c6.13-2.22,11.52-4.64,16.11-8.56a8.5,8.5,0,0,0,1.79-2.17c1.85-3.07.59-5.81-2.92-6.57a16.61,16.61,0,0,0-7.16.42c-4,.86-7.91,2-11.86,3-.67.17-1.44.78-1.94-.11s.17-1.42.63-2a14.32,14.32,0,0,1,5.85-4.14,38.11,38.11,0,0,1,16.89-2.84,11.18,11.18,0,0,1,3.93,1,6.3,6.3,0,0,1,3.92,5.94,13,13,0,0,1-3.49,9.17c-1,1.09-1.89,2.21-2.89,3.38.74.19,1.71.42,2.66.7,4.44,1.29,6.35,4.64,5.3,9.18a20.67,20.67,0,0,1-5.31,9.5,48.86,48.86,0,0,1-23.84,13.91,21.85,21.85,0,0,1-9.48-.1c.55-1.21,1.46-1.26,2.15-1.51a98.76,98.76,0,0,0,12.14-5.13A41.41,41.41,0,0,0,138,137.5a14,14,0,0,0,2.11-3.49c1.24-3.16.11-5.18-3.25-5.58a30.1,30.1,0,0,0-11.52,1c-4.83,1.32-4.83,1.33-5.84,6.34-.44,2.15-.84,4.31-1.24,6.47-.1.52-.15,1.12-.73,1.27s-1-.27-1.32-.69c-1.85-2.37-3.12-4.83-2.5-8.07a62,62,0,0,1,6.46-18.28,16.58,16.58,0,0,1,1-1.63,2.27,2.27,0,0,1,3-.78c1.25.58,1,1.61.63,2.69-.83,2.26-1.6,4.54-2.38,6.82C122.26,123.92,122.21,124.34,122,125.45Z"/><path class="cls-1" d="M172.17,127.82c2.37-.76,4.22-1.38,6.08-1.94,1.07-.33,1-1.23,1.1-2a20.29,20.29,0,0,1,3.29-8.74,8.52,8.52,0,0,1,4.32-3.51c2.08-.64,3.36.38,3.1,2.52a14.89,14.89,0,0,1-1,3.62,65.65,65.65,0,0,0-3.91,18.68c-.13,1.45.13,3.35-1.71,3.62s-2.43-1.62-3-3.07a24.19,24.19,0,0,1-1.26-5.18c-.36-2.12-.52-2.26-2.64-2a25,25,0,0,0-14.56,6.78c-.88.85-1.59,2-3.27,2.32a7.05,7.05,0,0,1,1.24-5.2,30.47,30.47,0,0,1,5.43-6.5,14.52,14.52,0,0,0,4.38-8.5c.22-1.45.52-3.17-1-4s-2.48.63-3.48,1.52a17.63,17.63,0,0,0-3.86,5.32,78.86,78.86,0,0,0-6,16.51,14.75,14.75,0,0,1-1.79,5c-.35.51-.77,1.11-1.5.93s-.87-.81-1.05-1.43c-.8-2.82-.36-5.64.08-8.42a99.6,99.6,0,0,1,3.67-15.9,16,16,0,0,1,1.78-4c1.22-1.8,2.5-1.65,3.41.35.25.56.41,1.17.66,1.89,1.34-.71,2.05-1.9,3-2.82a27.2,27.2,0,0,1,6.94-5.37c3.65-1.77,5.85-.68,6.59,3.33.63,3.42-.34,6.64-1.52,9.81A37.23,37.23,0,0,1,172.17,127.82Z"/><path class="cls-1" d="M123.51,40.67c-.38,3.21-2.37,5.46-4.68,7.45-.87.74-2,.11-1.83-1.1a20.07,20.07,0,0,1,2.93-8.78c.75-1.16,1.69-1,2.62-.13A3.16,3.16,0,0,1,123.51,40.67Z"/><path class="cls-1" d="M106,7.07c-2.08.07-3.5-1.19-3.48-3.1a4.13,4.13,0,0,1,3.66-4C107.94,0,110,1.79,110,3.42S107.94,7,106,7.07Z"/><path class="cls-1" d="M300.51,105c-.95-.74-1.82-.08-2.61.37-1.17.67-1.58,1.92-2,3.08-1.29,3.21-2.54,6.44-3.86,9.63a14.88,14.88,0,0,1-3,4.78c-.71.75-1.45,1.72-2.63,1.31s-1.17-1.6-1.17-2.67a14.71,14.71,0,0,1,.44-3.42c1-4.09,3.29-7.44,5.75-10.73,1-1.3,2.27-2.43,2.7-4.38-2.8-.11-4.77,1.17-6.6,2.71a28.17,28.17,0,0,0-8.71,12.5,16,16,0,0,1-3.22,5.35c-1.29,1.47-2.65,3.4-4.9,2.81s-2.46-3-3-4.85a6.26,6.26,0,0,1,1.53-6.47A71.53,71.53,0,0,0,286.06,84.5a50.65,50.65,0,0,0,1.73-15.25A9.65,9.65,0,0,0,287,65.6c-.89-1.89-1.91-2.25-3.78-1.39a13.59,13.59,0,0,0-3.32,2.37,54.21,54.21,0,0,0-16.12,25.09,82.91,82.91,0,0,0-3.89,23.81c0,1,.3,2.16-.49,3-3.47,3.83-7.15,7.41-12.21,9.1a6.45,6.45,0,0,1-3.43.14c-1.87-.41-2.78-2-2.71-4.38.06-2,.08-2,2.74-2.47,7.17-1.26,13.1-9.47,12-16.58a2.46,2.46,0,0,0-2.5-2.31,10.67,10.67,0,0,0-9.1,3.43A28.76,28.76,0,0,0,236,125.93c0,6,4.14,8.83,10,7.15a23.68,23.68,0,0,0,7.7-4.16A73.72,73.72,0,0,0,260,123c.6,1.79,1,3.4,1.68,4.9,1.74,3.94,4.77,5.59,9.89,3.94a9.68,9.68,0,0,0,3.62-2.43c.67-.65,1.06-1.58,2-1.94,2.44,3.18,5.61,3.92,9,2.13a11.64,11.64,0,0,0,3.72-3.33c.45-.58.72-1.4,1.59-1.72.37,3.52,1.4,6.42,4.37,8.13a.86.86,0,0,0,.65-.87c.83-5.16,1.62-10.34,2.52-15.5.53-3,1.25-5.94,1.86-8.92C301,106.57,301.31,105.66,300.51,105Zm-52.35,4.09c.7-.64,1.56-1.37,2.5-.7s.58,1.73.29,2.61c-1,3.09-3.31,4.6-6.93,5.23A15.65,15.65,0,0,1,248.16,109.13Zm26.09-26a35.85,35.85,0,0,1,3.08-5.47,10.7,10.7,0,0,1,1.87-2.1c1.56-1.28,2.73-.91,3.21,1a14.61,14.61,0,0,1,.11,5.63,38.14,38.14,0,0,1-5.78,16.11c-2.48,3.76-4.89,7.56-7.35,11.33a6,6,0,0,1-2.28,2.3A84.75,84.75,0,0,1,274.25,83.17Z"/><path class="cls-1" d="M200.7,48.16a4.35,4.35,0,0,0-2.77-.29c-2.7.32-5.39.75-8.09,1.13-2,.28-2.2.11-1.86-1.85a27.79,27.79,0,0,0,.3-7.83,5.74,5.74,0,0,0-2.87-4.63c-3.93-2.24-14,1.13-15.9,5.3-.26.58-.5,1.21.06,1.74s1,.1,1.45-.12c1.79-.85,3.51-1.9,5.37-2.58,2.86-1.05,4.71.25,5,3.29a22.23,22.23,0,0,1-.74,7.16,2.82,2.82,0,0,1-2.25,2.28c-2,.55-4.07,1.2-5.39,3-.75,1-1.71,2.11-.8,3.56,2-.35,3.61-1.44,5.88-1.48l-4.94,12.66a1.49,1.49,0,0,1-.33.52c-3.33,3.52-6.78,6.88-11.36,8.8a7.64,7.64,0,0,1-4.61.52c-1.77-.35-2.51-1.78-2.62-4.11-.09-1.84.82-2.17,2.4-2.44a14,14,0,0,0,10.74-8.3,23.06,23.06,0,0,0,1.8-6c.65-3.75-1-5.31-4.81-4.72a13.12,13.12,0,0,0-8.24,4.79,30.88,30.88,0,0,0-4.87,8.76c-.35.89-.54,1.84-1.59,2.18l-6.57,2.17c.12-1.19.9-1.8,1.36-2.57a21.77,21.77,0,0,0,3.51-13.76c-.37-3.73-2.79-5.15-6.16-3.61a25,25,0,0,0-7,5.25c-1.09,1.07-2.2,2.12-3.39,3.27-.7-1.33-.2-3.47-2.16-3.51s-2.28,1.87-2.91,3.27c-.09.2-.18.38-.25.58a96.27,96.27,0,0,0-4.49,19.89,23.1,23.1,0,0,0,0,4.4c.07,1,.16,2.32,1.35,2.6s1.67-1,2.08-1.95a16.92,16.92,0,0,0,.94-3A93.14,93.14,0,0,1,131,67.38c1.48-3.26,3.19-6.42,6.2-8.56,2-1.41,3.07-.82,3.2,1.63a12.91,12.91,0,0,1-3.94,9.94,61.58,61.58,0,0,0-4.83,5.38,14.4,14.4,0,0,0-2.48,5.39,1,1,0,0,0,.26,1.15.92.92,0,0,0,1.15-.16c.71-.63,1.38-1.29,2.09-1.91a27.18,27.18,0,0,1,16.54-6.94c0,2-.14,3.63,0,5.28.51,5.14,4.26,7.73,9.29,6.61,3.49-.77,6.31-2.72,9-4.88.87-.7,1.51-1.76,2.85-2-.28,2.13-.64,4.18-.81,6.25a13.16,13.16,0,0,0,1.52,7.9c1.54,2.66,4.42,4.23,7.09,3.65a19.1,19.1,0,0,0,10.25-6.36,5,5,0,0,0,.64-1.08c.23-.47.46-1,.1-1.47s-1-.36-1.43-.13c-1.32.64-2.6,1.37-3.92,2-4.61,2.25-8,.07-7.82-5.1a29,29,0,0,1,1.8-7.94c2.2-7,5.36-13.66,7.82-20.57a3.14,3.14,0,0,1,2.48-2.09c3.33-.9,6.67-1.8,10.06-2.46.82-.16,1.64-.37,2.45-.56a1.09,1.09,0,0,0,1-1A1.52,1.52,0,0,0,200.7,48.16ZM162.24,60.32c.52-.38,1.14-.69,1.72-.28s.43.91.44,1.44c.06,3.31-2.74,5.91-7.1,6.28C158.47,64.82,159.7,62.17,162.24,60.32Z"/><path class="cls-1" d="M59.88,19.6c-1-.36-1.5.59-1.83,1.31-.66,1.43-1.21,2.9-1.76,4.37-1.9,5.11-3.91,10.18-7,14.73-.44.65-1,1.6-1.95,1.2-.71-.29-.81-1.17-.84-1.92s0-1.26,0-1.89A47.88,47.88,0,0,1,48.08,25,20,20,0,0,0,49,20.36c0-2.5-1-3.34-3.54-3a11.87,11.87,0,0,0-3.78,1.48,93,93,0,0,1-8.76,4.39L31.47,20a21.74,21.74,0,0,0-5.1-7.48c-3.92-3.59-6.23-3.27-9,1.16-.39.62-.73,1.26-1.08,1.91A76.34,76.34,0,0,0,11.6,26.24,216.2,216.2,0,0,0,0,79.84c-.29,3.24.93,6.19,2.44,9,.8,1.47,1.7,1.36,2.48-.12a12.33,12.33,0,0,0,1-4.57c1-9.07,2.41-18.05,3.93-27a172.48,172.48,0,0,1,9.34-34.51,4.56,4.56,0,0,1,1.3-2.31,10.68,10.68,0,0,1,3.82,4.31c1.27,2.3,1.21,2.58-.78,4.46a25,25,0,0,0-4.95,6.47,13.76,13.76,0,0,0-1.81,5.64c-.25,4.32,2.11,6.51,6.22,5.31,5.42-1.58,9.49-4.79,11-10.59a21.63,21.63,0,0,0,.35-6.56c0-.72-.35-1.47.4-2a22.52,22.52,0,0,1,6.11-3.66,67,67,0,0,0-1.73,9.89,25.45,25.45,0,0,0,.43,9.68c1.19,4.31,4.45,5.77,8.5,3.8a14.07,14.07,0,0,0,5.59-5.39c3.11-4.84,4.7-10.26,6-15.78a39.55,39.55,0,0,0,.74-4.33C60.56,20.82,60.74,19.89,59.88,19.6ZM25.41,40.82a4.55,4.55,0,0,1-4.63,2.56c-1-.2-1.57-.8-1.07-1.78A20.26,20.26,0,0,1,26.33,34,9.65,9.65,0,0,1,25.41,40.82Z"/><path class="cls-1" d="M107.71,73.7c7.84-.63,12.53-7.78,13.08-15.37.2-2.78-.64-3.51-3.46-3.63A11.2,11.2,0,0,0,109.11,58c-2.71,2.47-4.31,5.65-5.77,8.93-.37.84-.55,1.78-1.63,2.15-3.57,1.25-4.63.79-6-2.74a27.46,27.46,0,0,0-3.32-6.06,14.5,14.5,0,0,0-4.07-3.89c-2.89-1.73-4.44-1.43-6.4,1.31A42.87,42.87,0,0,0,77,67.2a209,209,0,0,0-13.2,58.36c-.27,3.1,1,6,2.52,8.63.77,1.32,1.55,1.19,2.31-.12a9.75,9.75,0,0,0,1.05-3.93c.79-7.92,2-15.79,3.29-23.65,2.13-13.28,5.14-26.32,10.14-38.85.29-.73.33-1.65,1.31-2a11.56,11.56,0,0,1,4.12,5c.63,1.26.67,2.19-.61,3.22a22,22,0,0,0-5.78,7.39,12.57,12.57,0,0,0-1.55,6.66,4,4,0,0,0,4.29,4,8,8,0,0,0,2.48-.34c5.61-1.82,11-6.46,10.89-14.12,0-2.34.06-2.35,2.74-3a15.25,15.25,0,0,0,.42,7.15,6.27,6.27,0,0,0,4.75,4.56c3.56.76,10.22-2.33,12.06-5.52a4.37,4.37,0,0,0,.48-1.16c.18-.69.52-1.51-.27-2-.64-.37-1.17.21-1.65.6a16.44,16.44,0,0,1-6,3.4c-2.43.64-4.1-.33-4.8-2.72a9.71,9.71,0,0,1-.2-3.13C105.81,74.41,106.41,73.8,107.71,73.7Zm5.05-11.58c.72-.7,1.61-1.65,2.69-1,1.31.77.58,2.07.25,3.08-.87,2.72-3.18,4.23-6.63,4.32A16.21,16.21,0,0,1,112.76,62.12ZM89.11,86.07a4.54,4.54,0,0,1-4.29,2.61c-1.39,0-1.94-.8-1.29-2a24.41,24.41,0,0,1,6.82-8A12,12,0,0,1,89.11,86.07Z"/><path class="cls-1" d="M104.47,15.22c-.08-1.6-1-2.28-2.5-1.93a11.65,11.65,0,0,0-2.59,1.08c-3.84,1.89-7.66,3.8-11.47,5.69-1-1.1-1.23-2.38-1.76-3.5-1.53-3.26-3.37-6.3-6.38-8.43s-5-1.82-7.1,1.24a54.38,54.38,0,0,0-6,12.43A213.47,213.47,0,0,0,56.05,64.7c-.55,3.83-.91,7.7-1.28,11.55a15.82,15.82,0,0,0,2.29,9c.86,1.6,1.86,1.46,2.67-.19a8.8,8.8,0,0,0,.71-2.73c1-7.36,2-14.73,3.09-22.07,1.74-11.18,3.86-22.28,7.54-33a75.42,75.42,0,0,1,4.05-10.51,13.21,13.21,0,0,1,4.26,5.05c.69,1.37.73,2.46-.64,3.57a21.35,21.35,0,0,0-5,6,13.45,13.45,0,0,0-2.13,7.76c.22,3.09,2.25,4.7,5.34,4.22A15.5,15.5,0,0,0,88.78,32.42a15.53,15.53,0,0,0,.28-6.54,1.89,1.89,0,0,1,.74-2.18,31.08,31.08,0,0,1,5.55-3.46c.54,1,0,1.76-.08,2.55-.79,5.7-.7,11.3,1.92,16.6,1.09,2.21,2.25,3.14,3.39,2.67,1.8-.74,1.35-2.44,1.31-3.83A66,66,0,0,1,104.19,18,9.08,9.08,0,0,0,104.47,15.22ZM80.06,37.49a4.67,4.67,0,0,1-4,2.56c-1.53.11-2.24-.81-1.52-2.13a26.11,26.11,0,0,1,6.54-7.77A11.09,11.09,0,0,1,80.06,37.49Z"/></g></g></svg>